<svg id="footer-ico-dealer-locator" xmlns="http://www.w3.org/2000/svg" width="28.283" height="32.18" viewBox="0 0 28.283 32.18">
  <path id="Path_43511" data-name="Path 43511" d="M50.514,21.262c3.424-5.373,2.994-4.7,3.093-4.843a10.293,10.293,0,0,0,1.906-5.985A10.371,10.371,0,1,0,36.731,16.5l3.038,4.767c-3.248.5-8.769,1.986-8.769,5.262,0,1.194.779,2.9,4.492,4.221a29.757,29.757,0,0,0,9.65,1.436c6.79,0,14.142-1.915,14.142-5.657C59.283,23.248,53.768,21.762,50.514,21.262ZM38.274,15.41a8.485,8.485,0,1,1,13.8-.1c-.091.12.383-.616-6.936,10.868L38.306,15.458Q38.291,15.434,38.274,15.41Zm6.868,14.884c-7.416,0-12.256-2.18-12.256-3.771,0-1.069,2.487-2.828,8-3.513l3.463,5.434a.943.943,0,0,0,1.59,0L49.4,23.01c5.511.685,8,2.444,8,3.513C57.4,28.1,52.6,30.294,45.142,30.294Z" transform="translate(-31)" fill="#fff"/>
  <path id="Path_43512" data-name="Path 43512" d="M190.428,95.714a4.714,4.714,0,1,0-4.714,4.714A4.719,4.719,0,0,0,190.428,95.714Zm-7.542,0a2.828,2.828,0,1,1,2.828,2.828A2.832,2.832,0,0,1,182.886,95.714Z" transform="translate(-171.572 -85.281)" fill="#fff"/>
</svg>
