<svg xmlns="http://www.w3.org/2000/svg" width="23.37" height="29.446" viewBox="0 0 23.37 29.446">
  <g id="footer-ico-download-brochure" transform="translate(0.1 0.1)">
    <g id="Group_7365" data-name="Group 7365" transform="translate(0 0)">
      <path id="Path_43505" data-name="Path 43505" d="M773.655,284.226a.708.708,0,0,0-.508-.226H761.738a3.859,3.859,0,0,0-3.843,3.836V309.41a3.859,3.859,0,0,0,3.843,3.836h15.485a3.859,3.859,0,0,0,3.843-3.836V292.279a.76.76,0,0,0-.2-.494Zm.2,2.268,4.825,5.065h-3.136a1.682,1.682,0,0,1-1.689-1.681Zm3.363,25.339H761.738a2.447,2.447,0,0,1-2.43-2.423V287.836a2.447,2.447,0,0,1,2.43-2.423h10.709v4.464a3.09,3.09,0,0,0,3.1,3.094h4.1V309.41a2.442,2.442,0,0,1-2.43,2.423Zm0,0" transform="translate(-757.895 -284)" fill="#fff" stroke="#fff" stroke-width="0.2"/>
    </g>
    <path id="Path_43506" data-name="Path 43506" d="M858.729,685.152H847.1a.706.706,0,0,0,0,1.413h11.635a.706.706,0,1,0-.007-1.413Zm0,0" transform="translate(-841.33 -662.193)" fill="#fff" stroke="#fff" stroke-width="0.2"/>
    <path id="Path_43507" data-name="Path 43507" d="M880.113,464.66a.7.7,0,0,0,1.031,0l4.14-4.443a.7.7,0,0,0-1.031-.961l-2.918,3.129v-7.714a.706.706,0,1,0-1.413,0v7.714l-2.911-3.129a.7.7,0,0,0-1.031.961Zm0,0" transform="translate(-869.044 -444.237)" fill="#fff" stroke="#fff" stroke-width="0.2"/>
  </g>
</svg>
