<svg id="footer-ico-download-service-appointment" xmlns="http://www.w3.org/2000/svg" xmlns:xlink="http://www.w3.org/1999/xlink" width="38" height="26.7" viewBox="0 0 38 26.7">
  <defs>
    <clipPath id="clip-path">
      <rect id="Rectangle_26636" data-name="Rectangle 26636" width="38" height="26.7" fill="none"/>
    </clipPath>
  </defs>
  <g id="Group_79559" data-name="Group 79559" clip-path="url(#clip-path)">
    <path id="Path_55280" data-name="Path 55280" d="M6.11,8.091h0a4.136,4.136,0,0,0,1.343.343.48.48,0,0,0,.126-.951,3.288,3.288,0,0,1-1.019-.238.48.48,0,0,0-.451.847Zm3.121.489c1.784.088,4.209.088,6.777.088,2.193,0,4.265,0,5.923-.054.3-.01.583-.021.854-.034a.48.48,0,0,0,.456-.5.486.486,0,0,0-.5-.456q-.4.02-.838.034c-1.643.053-3.707.053-5.893.053-2.556,0-4.97,0-6.73-.087H9.257a.48.48,0,0,0-.025.959ZM9.09,17.933h0a6.68,6.68,0,0,1-5.045,1.213L3.9,19.118l-.005-.254c-.013-.617-.008-1.067.177-1.257a.733.733,0,0,1,.524-.145.48.48,0,0,0,0-.96,1.624,1.624,0,0,0-1.21.433,2.62,2.62,0,0,0-.451,1.946l0,.258a.926.926,0,0,0,.711.9,6.844,6.844,0,0,0,1.506.169,7.837,7.837,0,0,0,4.534-1.531.48.48,0,1,0-.6-.748Zm15.473-9.5a4.149,4.149,0,0,0,1.344-.343.48.48,0,0,0-.085-.883.49.49,0,0,0-.141-.021.479.479,0,0,0-.225.057,3.276,3.276,0,0,1-1.018.238.48.48,0,0,0,.126.951Zm6.423-.726h-.131a.48.48,0,1,0,0,.96,1.132,1.132,0,0,0,1.057-.729A1.556,1.556,0,0,0,31.7,6.428l-.2-.257a1.139,1.139,0,0,0-.894-.439H29.264c-.129,0-.554.041-.908.094-.08.012-.168.026-.258.042l-.143.026L27.9,5.759C26.26,1.842,25.126.971,24.321.649a.485.485,0,0,0-.086-.026A66.1,66.1,0,0,0,16.017,0,65.913,65.913,0,0,0,7.784.623.459.459,0,0,0,7.7.649c-.8.322-1.939,1.194-3.578,5.112L4.061,5.9l-.144-.026c-.092-.017-.181-.031-.263-.043a8.949,8.949,0,0,0-.9-.094H1.414a1.139,1.139,0,0,0-.894.439l-.2.256A1.564,1.564,0,0,0,.108,7.948a1.124,1.124,0,0,0,1.053.719A.481.481,0,0,0,1.168,7.7H1.043L1,7.589a.592.592,0,0,1,.083-.575l.242-.322H2.747c.13,0,.454.038.726.078L3.7,6.8l-.1.253A7.607,7.607,0,0,1,2.4,8.919,7.251,7.251,0,0,0,.49,13.579L.472,19.3a2.361,2.361,0,0,0,.349,2.446l.034.048v2.973a1.411,1.411,0,0,0,1.41,1.41H4.556a1.412,1.412,0,0,0,1.41-1.41V23.111l.193.012c.284.018.585.034.9.051,2.513.128,5.773.2,8.944.2s6.431-.073,8.945-.2c.32-.016.62-.033.9-.051l.193-.012v1.658a1.411,1.411,0,0,0,1.409,1.41h2.292a1.411,1.411,0,0,0,1.409-1.41V21.8l.035-.048a2.361,2.361,0,0,0,.349-2.446l-.018-.079V13.578a7.245,7.245,0,0,0-1.909-4.66,6.773,6.773,0,0,1-1.2-1.862L28.4,7.01l-.075-.21.22-.032c.271-.039.593-.074.716-.077l1.423,0,.253.327a.609.609,0,0,1,.092.569ZM5.006,24.768a.45.45,0,0,1-.45.45H2.265a.451.451,0,0,1-.45-.45V22.595l.226.058a19.015,19.015,0,0,0,2.8.377l.167.014Zm25.2,0a.451.451,0,0,1-.45.45H27.46a.451.451,0,0,1-.45-.45V23.043l.167-.014a18.969,18.969,0,0,0,2.8-.377l.227-.057ZM28.976,9.632h0a6.366,6.366,0,0,1,1.591,3.947V19.4a.391.391,0,0,0,.075.258c.095.162.46.937-.588,1.95l-.044.031c-.879.445-6.9.78-14,.78s-13.122-.335-14-.78L1.962,21.6c-1.047-1.012-.682-1.787-.6-1.932A.416.416,0,0,0,1.45,19.4V13.578a6.369,6.369,0,0,1,1.59-3.947A7.424,7.424,0,0,0,4.473,7.456a.347.347,0,0,0,.019-.044c1.321-3.465,2.465-5.379,3.5-5.848l.042-.013A66.646,66.646,0,0,1,16,.959a66.614,66.614,0,0,1,7.978.593l.042.013c1.035.469,2.18,2.381,3.5,5.847a.4.4,0,0,0,.019.043,7.448,7.448,0,0,0,1.432,2.176Zm-9.454,8.441H12.5a.48.48,0,1,0,0,.96h7.025a.48.48,0,1,0,0-.96m7.324-7.194.052-.018a2.481,2.481,0,0,0,.53-.269.48.48,0,0,0,.111-.669h0a.473.473,0,0,0-.311-.194.479.479,0,0,0-.358.083,1.516,1.516,0,0,1-.293.145c-1.295.351-3.227.86-3.542.923a2.241,2.241,0,0,0-1.139.643l-.053.054H10.174l-.053-.054a2.242,2.242,0,0,0-1.139-.643A17.677,17.677,0,0,1,5.148,9.811a.48.48,0,0,0-.558.78,8.475,8.475,0,0,0,2.516.856l.109.027.025.108a1.33,1.33,0,0,1-.536,1.5l-.07.058-.088-.021a15.3,15.3,0,0,1-1.839-.537.582.582,0,0,1-.342-.342l-.981.008a1.538,1.538,0,0,0,.985,1.233,17.019,17.019,0,0,0,2.256.641l.022,0,.337.073a4.684,4.684,0,0,1,1.751.993,4.615,4.615,0,0,0,2.944,1.453c1.207.086,3.134.178,4.328.178s3.121-.092,4.328-.178A4.613,4.613,0,0,0,23.28,15.19a4.675,4.675,0,0,1,1.731-.987,18.476,18.476,0,0,0,2.636-.724,1.531,1.531,0,0,0,1-1.414.48.48,0,0,0-.96,0,.566.566,0,0,1-.375.518,15.363,15.363,0,0,1-1.881.546l-.081.019-.067-.049a1.821,1.821,0,0,1-.666-1.48l0-.144.139-.036c.828-.217,1.738-.461,2.094-.557Zm-2.78,2.666a5.237,5.237,0,0,0-1.44.943,3.613,3.613,0,0,1-2.356,1.2c-1.19.085-3.087.176-4.26.176s-3.07-.09-4.26-.176a3.616,3.616,0,0,1-2.357-1.2,5.241,5.241,0,0,0-1.47-.957l-.2-.09.13-.181a2.068,2.068,0,0,0,.4-1.321l-.007-.23.548.112a1.4,1.4,0,0,1,.757.505.482.482,0,0,0,.4.211H22.07a.478.478,0,0,0,.394-.207,1.4,1.4,0,0,1,.76-.509c.05-.01.128-.028.227-.052l.2-.049.022.206a3.046,3.046,0,0,0,.467,1.353l.119.178Zm-3.739.068H11.691a.48.48,0,0,0,0,.96h8.634a.48.48,0,0,0,0-.96m7.1,2.89a.48.48,0,1,0,0,.96.732.732,0,0,1,.524.145c.186.19.191.661.178,1.255l0,.255-.146.028a5.933,5.933,0,0,1-1.513.092H26.43a.48.48,0,0,0-.035.958,6.794,6.794,0,0,0,1.972-.151.926.926,0,0,0,.711-.9l0-.255a2.622,2.622,0,0,0-.45-1.947,1.62,1.62,0,0,0-1.211-.435m-2.636,2.39a6.915,6.915,0,0,1-1.857-.96.48.48,0,1,0-.6.748A7.678,7.678,0,0,0,24.474,19.8a.487.487,0,0,0,.61-.3.48.48,0,0,0-.3-.609Z" transform="translate(0)" fill="#fff"/>
    <path id="Path_55281" data-name="Path 55281" d="M162.356,81.2a7.468,7.468,0,1,1-7.468-7.468,7.468,7.468,0,0,1,7.468,7.468" transform="translate(-124.816 -62.423)" fill="#161615"/>
    <circle id="Ellipse_134" data-name="Ellipse 134" cx="7.468" cy="7.468" r="7.468" transform="translate(22.605 11.305)" fill="none" stroke="#fff" stroke-miterlimit="10" stroke-width="1"/>
    <path id="Path_55282" data-name="Path 55282" d="M176.476,95.41a2.035,2.035,0,0,0-.416.055,2.078,2.078,0,0,0-.981.55h0a2.029,2.029,0,0,0-.435,2.222l-4.035,3.627a1.015,1.015,0,1,0,1.435,1.435l3.628-4.034a2.028,2.028,0,0,0,2.222-.436h0a2.042,2.042,0,0,0,.5-2.092.142.142,0,0,0-.236-.055l-.78.78a.659.659,0,1,1-.931-.931l.78-.78a.142.142,0,0,0-.055-.236,1.981,1.981,0,0,0-.7-.1m-.1.309a3.285,3.285,0,0,1,.425.053l-.557.557a.944.944,0,1,0,1.334,1.334l.557-.557a1.729,1.729,0,0,1-.445,1.521,1.748,1.748,0,0,1-2,.349.142.142,0,0,0-.169.033l-3.687,4.1a.731.731,0,1,1-1.034-1.033l4.1-3.687a.143.143,0,0,0,.033-.169,1.748,1.748,0,0,1,.348-2,1.79,1.79,0,0,1,.846-.475.98.98,0,0,1,.252-.024m-5.238.111a.143.143,0,0,0-.1.042l-.487.486a.143.143,0,0,0-.017.181l.76,1.116a.138.138,0,0,0,.065.052l.563.224L173.09,99.1a.142.142,0,1,0,.2-.2L172.1,97.709a.143.143,0,0,0-.048-.031l-.551-.219-.668-.982.319-.32,1.019.7.181.508a.143.143,0,0,0,.034.053l1.213,1.212a.142.142,0,1,0,.2-.2l-1.19-1.19-.185-.521a.144.144,0,0,0-.053-.07l-1.155-.8a.143.143,0,0,0-.081-.025m4.232,4.231a.143.143,0,0,0-.1.245l.308.308-.285.285-.282-.282a.143.143,0,1,0-.2.2l.282.282-.2.2a.337.337,0,0,0-.084.3.531.531,0,0,0,.151.277l.618.617a.143.143,0,0,0,.2,0,.342.342,0,0,1,.483.484.142.142,0,0,0,0,.2l.618.618a.531.531,0,0,0,.277.151.338.338,0,0,0,.3-.084l1.094-1.094a.336.336,0,0,0,.084-.3.526.526,0,0,0-.152-.277l-.618-.618a.143.143,0,0,0-.2,0,.342.342,0,0,1-.484-.484.142.142,0,0,0,0-.2l-.618-.618a.524.524,0,0,0-.277-.151.335.335,0,0,0-.3.084l-.2.2-.308-.307a.142.142,0,0,0-.1-.044m.827.344a.092.092,0,0,1,.035,0,.255.255,0,0,1,.126.072l.56.56a.575.575,0,0,0,.8.8l.56.56a.261.261,0,0,1,.072.126c.006.034,0,.044,0,.047l-1.094,1.094s-.013.012-.047,0a.255.255,0,0,1-.126-.072l-.561-.56a.575.575,0,0,0-.8-.8l-.56-.56a.256.256,0,0,1-.072-.126c-.006-.034,0-.044,0-.047l.3-.3.487-.487,0,0,.3-.3a.021.021,0,0,1,.012-.006m-4.876,1.741a.452.452,0,0,0-.314.132.44.44,0,1,0,.627-.006.433.433,0,0,0-.314-.126m0,.283a.152.152,0,0,1,.11.044.162.162,0,1,1-.224.005.164.164,0,0,1,.114-.05" transform="translate(-144.175 -80.78)" fill="#fff"/>
    <path id="Path_55283" data-name="Path 55283" d="M176.476,95.41a2.035,2.035,0,0,0-.416.055,2.078,2.078,0,0,0-.981.55h0a2.029,2.029,0,0,0-.435,2.222l-4.035,3.627a1.015,1.015,0,1,0,1.435,1.435l3.628-4.034a2.028,2.028,0,0,0,2.222-.436h0a2.042,2.042,0,0,0,.5-2.092.142.142,0,0,0-.236-.055l-.78.78a.659.659,0,1,1-.931-.931l.78-.78a.142.142,0,0,0-.055-.236A1.981,1.981,0,0,0,176.476,95.41Zm-.1.309a3.285,3.285,0,0,1,.425.053l-.557.557a.944.944,0,1,0,1.334,1.334l.557-.557a1.729,1.729,0,0,1-.445,1.521,1.748,1.748,0,0,1-2,.349.142.142,0,0,0-.169.033l-3.687,4.1a.731.731,0,1,1-1.034-1.033l4.1-3.687a.143.143,0,0,0,.033-.169,1.748,1.748,0,0,1,.348-2,1.79,1.79,0,0,1,.846-.475A.98.98,0,0,1,176.377,95.719Zm-5.238.111a.143.143,0,0,0-.1.042l-.487.486a.143.143,0,0,0-.017.181l.76,1.116a.138.138,0,0,0,.065.052l.563.224L173.09,99.1a.142.142,0,1,0,.2-.2L172.1,97.709a.143.143,0,0,0-.048-.031l-.551-.219-.668-.982.319-.32,1.019.7.181.508a.143.143,0,0,0,.034.053l1.213,1.212a.142.142,0,1,0,.2-.2l-1.19-1.19-.185-.521a.144.144,0,0,0-.053-.07l-1.155-.8A.143.143,0,0,0,171.139,95.83Zm4.232,4.231a.143.143,0,0,0-.1.245l.308.308-.285.285-.282-.282a.143.143,0,1,0-.2.2l.282.282-.2.2a.337.337,0,0,0-.084.3.531.531,0,0,0,.151.277l.618.617a.143.143,0,0,0,.2,0,.342.342,0,0,1,.483.484.142.142,0,0,0,0,.2l.618.618a.531.531,0,0,0,.277.151.338.338,0,0,0,.3-.084l1.094-1.094a.336.336,0,0,0,.084-.3.526.526,0,0,0-.152-.277l-.618-.618a.143.143,0,0,0-.2,0,.342.342,0,0,1-.484-.484.142.142,0,0,0,0-.2l-.618-.618a.524.524,0,0,0-.277-.151.335.335,0,0,0-.3.084l-.2.2-.308-.307A.142.142,0,0,0,175.371,100.061Zm.827.344a.092.092,0,0,1,.035,0,.255.255,0,0,1,.126.072l.56.56a.575.575,0,0,0,.8.8l.56.56a.261.261,0,0,1,.072.126c.006.034,0,.044,0,.047l-1.094,1.094s-.013.012-.047,0a.255.255,0,0,1-.126-.072l-.561-.56a.575.575,0,0,0-.8-.8l-.56-.56a.256.256,0,0,1-.072-.126c-.006-.034,0-.044,0-.047l.3-.3.487-.487,0,0,.3-.3A.021.021,0,0,1,176.2,100.4Zm-4.876,1.741a.452.452,0,0,0-.314.132.44.44,0,1,0,.627-.006A.433.433,0,0,0,171.323,102.145Zm0,.283a.152.152,0,0,1,.11.044.162.162,0,1,1-.224.005A.164.164,0,0,1,171.325,102.429Z" transform="translate(-144.175 -80.78)" fill="none" stroke="#fff" stroke-miterlimit="10" stroke-width="0.2"/>
  </g>
</svg>
