<svg xmlns="http://www.w3.org/2000/svg" width="46.517" height="24.459" viewBox="0 0 46.517 24.459">
  <g id="footer-ico-book-car" transform="translate(-672.793 -3505.778)">
    <path id="Path_54093" data-name="Path 54093" d="M167.1,160.408l-3.737-1.706-3.3-5.262a5.2,5.2,0,0,0-4.432-2.44h-14.05a5.242,5.242,0,0,0-4.166,2.049l-4.261,5.576-7.1,1.945a4.164,4.164,0,0,0-3.05,4.013V167.3a4.162,4.162,0,0,0,4.127,4.194h.61a5.293,5.293,0,0,0,10.247,0H154a5.293,5.293,0,0,0,10.247,0h1.144a4.162,4.162,0,0,0,4.127-4.194v-3.1A4.154,4.154,0,0,0,167.1,160.408Zm-34.239,13.126a3.384,3.384,0,1,1,3.384-3.384h0A3.385,3.385,0,0,1,132.856,173.533Zm26.261,0a3.384,3.384,0,1,1,3.384-3.384h0a3.385,3.385,0,0,1-3.384,3.384Zm8.493-6.234a2.25,2.25,0,0,1-2.221,2.288h-1.01a5.294,5.294,0,0,0-10.524,0H138.118a5.294,5.294,0,0,0-10.523,0h-.477A2.25,2.25,0,0,1,124.9,167.3v-2.717a2.246,2.246,0,0,1,1.649-2.183l7.426-2.03a.93.93,0,0,0,.505-.343l4.442-5.824a3.369,3.369,0,0,1,2.659-1.3h14.05a3.284,3.284,0,0,1,2.822,1.544l3.451,5.51a.939.939,0,0,0,.41.362l3.984,1.821A2.244,2.244,0,0,1,167.6,164.2v3.1Z" transform="translate(549.793 3354.778)" fill="#fff"/>
    <g id="Group_76532" data-name="Group 76532" transform="translate(692.247 3512.577)">
      <g id="Group_7443" data-name="Group 7443" transform="translate(0 0)">
        <path id="Path_43541" data-name="Path 43541" d="M168.931,310.89l-5.271,5.27-2.049-2.048L160,315.722l3.66,3.659,6.882-6.881Zm0,0" transform="translate(-160 -310.89)" fill="#fff"/>
      </g>
    </g>
  </g>
</svg>
