<svg xmlns="http://www.w3.org/2000/svg" width="27.531" height="33.565" viewBox="0 0 27.531 33.565">
  <g id="icon-apple" transform="translate(-86.155)">
    <path id="Path_459" data-name="Path 459" d="M95.283,308.734c-5-.029-9.128-10.226-9.128-15.42,0-8.483,6.364-10.34,8.817-10.34a10.145,10.145,0,0,1,3.326.818,7.439,7.439,0,0,0,1.9.545,5.909,5.909,0,0,0,1.363-.442,10.923,10.923,0,0,1,4.107-.993h.009a8.418,8.418,0,0,1,7.045,3.558l.514.772-.74.558a6.222,6.222,0,0,0-2.984,5.131,5.791,5.791,0,0,0,3.231,5.354c.463.279.942.566.942,1.194,0,.41-3.273,9.215-8.025,9.215a6.457,6.457,0,0,1-2.71-.658,5.5,5.5,0,0,0-2.412-.581,6.205,6.205,0,0,0-1.91.517,9.358,9.358,0,0,1-3.313.773Zm0,0" transform="translate(0 -275.169)" fill="#fff"/>
    <path id="Path_460" data-name="Path 460" d="M301.592,164.945c.124,4.463-3.068,7.559-6.256,7.365-.525-3.562,3.188-7.365,6.256-7.365Zm0,0" transform="translate(-195.422 -164.945)" fill="#fff"/>
  </g>
</svg>
