<svg xmlns="http://www.w3.org/2000/svg" width="31.465" height="33.565" viewBox="0 0 31.465 33.565">
  <g id="icon-playstore" transform="translate(-16.014)">
    <path id="Path_462" data-name="Path 462" d="M52.462.537a4.262,4.262,0,0,0-4.16.01L63.594,14.655l5.137-5.137Z" transform="translate(-30.171 0)" fill="#fff"/>
    <path id="Path_463" data-name="Path 463" d="M16.6,30.365a3.912,3.912,0,0,0-.587,2.049V57.893a3.924,3.924,0,0,0,.548,2L31.94,44.514Z" transform="translate(0 -28.374)" fill="#fff"/>
    <path id="Path_464" data-name="Path 464" d="M315.509,163.981l-4.9-2.7-5.506,5.5,6.748,6.224,3.66-2.02a3.964,3.964,0,0,0,0-7Z" transform="translate(-270.137 -150.705)" fill="#fff"/>
    <path id="Path_465" data-name="Path 465" d="M62.666,267.9l-15.42,15.42a4.252,4.252,0,0,0,4.229.04l17.489-9.652Z" transform="translate(-29.185 -250.339)" fill="#fff"/>
  </g>
</svg>
