<svg id="icon-instagram" xmlns="http://www.w3.org/2000/svg" width="31.467" height="31.473" viewBox="0 0 31.467 31.473">
  <g id="Group_46" data-name="Group 46" transform="translate(0 0)">
    <path id="Path_23" data-name="Path 23" d="M82.285,150.253a11.493,11.493,0,0,0-.732-3.818,8.062,8.062,0,0,0-4.605-4.6,11.534,11.534,0,0,0-3.818-.732c-1.685-.08-2.22-.1-6.493-.1s-4.808.019-6.487.092a11.507,11.507,0,0,0-3.818.732,8.061,8.061,0,0,0-4.605,4.605A11.536,11.536,0,0,0,51,150.247c-.08,1.685-.1,2.22-.1,6.493s.019,4.808.092,6.486a11.5,11.5,0,0,0,.732,3.818,8.06,8.06,0,0,0,4.6,4.605,11.53,11.53,0,0,0,3.818.731c1.678.074,2.213.092,6.487.092s4.808-.018,6.486-.092a11.5,11.5,0,0,0,3.818-.731,8.05,8.05,0,0,0,4.605-4.605,11.53,11.53,0,0,0,.732-3.818c.074-1.678.092-2.213.092-6.486s-.006-4.808-.08-6.487ZM79.451,163.1a8.631,8.631,0,0,1-.541,2.921,5.221,5.221,0,0,1-2.988,2.988,8.665,8.665,0,0,1-2.921.541c-1.66.074-2.158.092-6.357.092s-4.7-.018-6.358-.092a8.629,8.629,0,0,1-2.921-.541,4.842,4.842,0,0,1-1.807-1.174,4.9,4.9,0,0,1-1.175-1.807,8.665,8.665,0,0,1-.541-2.921c-.074-1.66-.092-2.158-.092-6.357s.018-4.7.092-6.357a8.626,8.626,0,0,1,.541-2.92,4.783,4.783,0,0,1,1.181-1.808,4.887,4.887,0,0,1,1.807-1.174,8.67,8.67,0,0,1,2.921-.541c1.66-.074,2.158-.092,6.357-.092s4.7.019,6.358.092a8.634,8.634,0,0,1,2.921.541,5.19,5.19,0,0,1,2.982,2.982,8.666,8.666,0,0,1,.541,2.92c.074,1.66.092,2.158.092,6.357s-.018,4.691-.092,6.351Zm0,0" transform="translate(-50.898 -141)" fill="#fff"/>
  </g>
  <path id="Path_24" data-name="Path 24" d="M183.265,265.281a8.085,8.085,0,1,0,8.085,8.085,8.087,8.087,0,0,0-8.085-8.085Zm0,13.329a5.245,5.245,0,1,1,5.244-5.244,5.245,5.245,0,0,1-5.244,5.244Zm0,0" transform="translate(-167.525 -257.626)" fill="#fff"/>
  <path id="Path_25" data-name="Path 25" d="M416.037,231.332a1.888,1.888,0,1,1-1.888-1.887,1.888,1.888,0,0,1,1.888,1.887Zm0,0" transform="translate(-390.005 -223.998)" fill="#fff"/>
</svg>
