<svg xmlns="http://www.w3.org/2000/svg" width="16.236" height="16.239" viewBox="0 0 16.236 16.239">
  <g id="Group_78559" data-name="Group 78559" transform="translate(-1510.645 -70.881)">
    <path id="Path_43446" data-name="Path 43446" d="M-182.969,155.074l-4.608-4.608a6.4,6.4,0,0,0,1.433-4.11A6.442,6.442,0,0,0-192.358,140,6.435,6.435,0,0,0-199,146.642a6.442,6.442,0,0,0,6.353,6.214,6.4,6.4,0,0,0,4.11-1.433l4.618,4.618a.675.675,0,0,0,.478.2.675.675,0,0,0,.511-.233A.686.686,0,0,0-182.969,155.074Zm-9.489-3.573a5.08,5.08,0,0,1-5.187-5.187,5.088,5.088,0,0,1,4.96-4.96,5.08,5.08,0,0,1,5.188,5.187A5.088,5.088,0,0,1-192.458,151.5Z" transform="translate(1709.645 -69.119)" fill="#fff"/>
  </g>
</svg>
