<svg id="icon-youtube" xmlns="http://www.w3.org/2000/svg" width="40.542" height="28.385" viewBox="0 0 40.542 28.385">
  <path id="Path_28" data-name="Path 28" d="M25.706,177.441a5.079,5.079,0,0,0-3.573-3.574C18.961,173,6.27,173,6.27,173s-12.69,0-15.863.835a5.183,5.183,0,0,0-3.573,3.607C-14,180.614-14,187.193-14,187.193s0,6.612.835,9.751a5.08,5.08,0,0,0,3.573,3.573c3.206.868,15.863.868,15.863.868s12.69,0,15.862-.835a5.08,5.08,0,0,0,3.574-3.573c.835-3.173.835-9.751.835-9.751s.033-6.612-.835-9.784ZM2.23,193.271V181.115l10.553,6.078Zm0,0" transform="translate(14 -173)" fill="#fff"/>
</svg>
